# xmcd
#
# Track frame offsets: 
#        150
#        18082
#        45545
#        69150
#        85697
#        105755
#        121315
#
# Disc length: 1917 seconds
#
# Revision: 2
# Processed by: cddbd v1.5.2PL0 Copyright (c) Steve Scherf et al.
# Submitted via: ExactAudioCopy v0.99pb4
#
DISCID=40077b07
DTITLE=A. K. Salim - Blues Suite
DYEAR=1900
DGENRE=Jazz
TTITLE0=Pay Day
TTITLE1=Joy Box
TTITLE2=Full Moon
TTITLE3=Blue Baby
TTITLE4=The Sultan
TTITLE5=Blue Shout
TTITLE6=Dike How Long Baby
EXTD=Recorded Sept. 26 and Oct. 6, 1958
EXTT0=
EXTT1=
EXTT2=
EXTT3=
EXTT4=
EXTT5=
EXTT6=
PLAYORDER=
